<?xml version="1.0" standalone="no"?>
<!DOCTYPE svg PUBLIC "-//W3C//DTD SVG 20010904//EN"
 "http://www.w3.org/TR/2001/REC-SVG-20010904/DTD/svg10.dtd">
<svg version="1.0" xmlns="http://www.w3.org/2000/svg"
 width="350.000000pt" height="350.000000pt" viewBox="0 0 350.000000 350.000000"
 preserveAspectRatio="xMidYMid meet">
<metadata>
Created by potrace 1.14, written by Peter Selinger 2001-2017
</metadata>
<g transform="translate(0.000000,350.000000) scale(0.100000,-0.100000)"
fill="#000000" stroke="none">
<path d="M1500 3104 c-146 -31 -150 -32 -180 -44 -14 -5 -38 -15 -55 -21 -16
-7 -36 -13 -43 -15 -26 -5 -62 -35 -63 -52 -3 -35 -2 -37 47 -150 8 -18 14
-35 14 -37 0 -3 -26 -18 -57 -34 -61 -30 -145 -84 -201 -129 -62 -50 -192
-178 -192 -190 0 -7 -4 -12 -9 -12 -6 0 -34 -37 -64 -82 -48 -73 -69 -111
-124 -219 -22 -45 -83 -269 -89 -328 -8 -77 -8 -306 0 -361 3 -25 15 -79 26
-120 12 -41 23 -84 25 -96 8 -56 146 -325 189 -370 6 -7 31 -35 56 -64 57 -67
140 -150 150 -150 4 0 15 -9 26 -21 83 -91 387 -235 561 -264 92 -16 114 -17
228 -17 192 0 323 20 445 69 8 3 20 7 25 9 61 15 281 140 335 191 8 7 26 23
40 34 47 39 105 96 140 138 19 24 42 50 51 60 55 58 193 321 205 391 3 14 11
46 20 71 8 25 17 63 19 84 3 21 8 52 12 69 8 40 7 285 -1 353 -24 188 -139
456 -265 613 -32 41 -159 169 -193 196 -63 50 -167 118 -217 144 -34 17 -61
32 -61 35 0 4 8 24 45 109 20 46 22 80 6 100 -20 24 -201 84 -331 110 -172 34
-356 34 -520 0z"/>
</g>
</svg>
